<svg width="60" height="60" viewBox="0 0 60 60" fill="none" xmlns="http://www.w3.org/2000/svg">
<path d="M22.5 12C22.5 10.6193 23.6193 9.5 25 9.5H36.5023C37.3098 9.5 38.0677 9.89007 38.5369 10.5473L41.0346 14.0454C41.3373 14.4693 41.5 14.9772 41.5 15.4981V32C41.5 33.3807 40.3807 34.5 39 34.5H25C23.6193 34.5 22.5 33.3807 22.5 32V12Z" stroke="#1A1A1A"/>
<path d="M0 22C0 19.7909 1.79086 18 4 18H23.604C24.9025 18 26.1201 18.6303 26.8699 19.6904L31.2658 25.9063C31.7435 26.5817 32 27.3887 32 28.2159V56C32 58.2091 30.2091 60 28 60H4C1.79086 60 0 58.2091 0 56V22Z" fill="#00B4A6"/>
</svg>
