<svg width="60" height="60" viewBox="0 0 60 60" fill="none" xmlns="http://www.w3.org/2000/svg">
<path fill-rule="evenodd" clip-rule="evenodd" d="M7 20C5.89543 20 5 20.8954 5 22V58C5 59.1046 5.89543 60 7 60H26C27.1046 60 28 59.1046 28 58V22C28 20.8954 27.1046 20 26 20H7ZM16.5 50.7144C14.7678 50.7144 13.3636 52.1186 13.3636 53.8507V54.0066C13.3636 55.7387 14.7678 57.1429 16.5 57.1429C18.2322 57.1429 19.6364 55.7387 19.6364 54.0066V53.8507C19.6364 52.1186 18.2322 50.7144 16.5 50.7144Z" fill="#00B4A6"/>
<path d="M16.5 5.5V39M16.5 39L2 24.5M16.5 39L31 24.5" stroke="black"/>
</svg>
