<svg width="60" height="60" viewBox="0 0 60 60" fill="none" xmlns="http://www.w3.org/2000/svg">
<path d="M0 15C0 13.8954 0.895431 13 2 13H29.0975C29.6713 13 30.2175 13.2465 30.5971 13.6768L43.8324 28.6768C44.4995 29.4328 44.4995 30.5672 43.8324 31.3232L30.5971 46.3232C30.2175 46.7535 29.6713 47 29.0975 47H2C0.89543 47 0 46.1046 0 45V15Z" fill="#00B4A6"/>
<path d="M39.5 23C39.5 22.7239 39.7239 22.5 40 22.5H48.1056C48.2692 22.5 48.4225 22.58 48.516 22.7143L50.4104 25.4355C50.4687 25.5194 50.5 25.6191 50.5 25.7212V37C50.5 37.2761 50.2761 37.5 50 37.5H40C39.7239 37.5 39.5 37.2761 39.5 37V23Z" stroke="#1A1A1A"/>
<path d="M22.5 23C22.5 22.7239 22.7239 22.5 23 22.5H31.1056C31.2692 22.5 31.4225 22.58 31.516 22.7143L33.4104 25.4355C33.4687 25.5194 33.5 25.6191 33.5 25.7212V37C33.5 37.2761 33.2761 37.5 33 37.5H23C22.7239 37.5 22.5 37.2761 22.5 37V23Z" stroke="#1A1A1A"/>
<path d="M5.5 23C5.5 22.7239 5.72386 22.5 6 22.5H14.1056C14.2692 22.5 14.4225 22.58 14.516 22.7143L16.4104 25.4355C16.4687 25.5194 16.5 25.6191 16.5 25.7212V37C16.5 37.2761 16.2761 37.5 16 37.5H6C5.72386 37.5 5.5 37.2761 5.5 37V23Z" stroke="#1A1A1A"/>
</svg>
